<?xml version="1.0" encoding="utf-8"?>
<!-- Generator: Adobe Illustrator 22.1.0, SVG Export Plug-In . SVG Version: 6.00 Build 0)  -->
<svg id="shadow" version="1.1" xmlns="http://www.w3.org/2000/svg" xmlns:xlink="http://www.w3.org/1999/xlink" x="0px" y="0px"
	 viewBox="0 0 917.2 473.8" style="enable-background:new 0 0 917.2 473.8;" xml:space="preserve">
<style type="text/css">
	.st0{fill:#E50747;}
	.st1{fill:#DB1456;}
	.st2{fill:#4B15B5;}
	.st3{fill:#FFFFFF;}
	.st4{fill:#A7E1D2;}
	.st5{fill:#4C4C4C;}
</style>
<g id="color-0">
	<path d="M569.6,280.9c-50.1-2.9-102-5.1-151.8-7.4c-59.9-2.8-117.1-7-166.4-8.1c-91.4-2.1-155-2.6-155-2.6s-7.8,9.3-11,11.8
		c-13.7,10.8-30.6,17.8-40.9,20.9c-5,1.5-18.1,4.7-21.3,7.8c-6.2,5.9-6,18.2-6.6,24.5c-0.1,1.3,0,5,1.2,5c13.6,0,18.1,14,19,17.8
		c0.5,1.9,0.7,12.3,0.7,12.3s-0.2,10.4-0.7,12.3c-1,3.7-5.4,17.8-19,17.8c-1.3,0-1.4,3.7-1.2,5c0.6,6.3,0.4,18.6,6.6,24.5
		c3.2,3.1,16.3,6.3,21.3,7.8c10.3,3.2,27.2,10.1,40.9,20.9c3.2,2.5,11,11.8,11,11.8s63.6-0.4,155-2.6c49.3-1.1,106.4-5.4,166.4-8.1
		c49.9-2.3,101.8-4.5,151.8-7.4c155.7-9.1,296.3-37.2,330.1-81.9C865.9,318.1,725.3,290,569.6,280.9z"/>
	<path d="M906.7,83.3c-7.4-4.9-46.2-16.3-62.5-19.6C781.6,50.9,722.6,42,681.7,37.7c-81.1-8.5-207.6-11.5-330.1-16.9
		c-41.3-1.8-82.1-3.7-120.7-3.7c-60.7,0.1-115.9,3.6-158.9,9.4c-15.4,2.1-40,12-50.4,20.9C0.8,65.4,2.2,87.2,6.2,100.4
		c11,35.9,59.6,50,84.1,56.3c87.3,22.3,234.2,24.7,312.3,20.7c77.1-3.9,225.2-16.1,307.6-25.9c19.2-2.3,80.7-10.1,99.4-15.1
		c20-5.3,58.8-20.1,77.4-29.2c4.8-2.3,14.3-7.2,18.4-10.5c1.2-0.9,4-5.6,4-7.8C909.4,87,907.6,83.9,906.7,83.3z M69.7,139.7
		c-15.5-3.7-31.9-11-48.8-31.9c-4.8-5.9-6.8-18.5-4.3-31.3c3.2-16.4,13.4-24,21.2-28c4.9-2.5,16.7-4.7,23.8-1.9
		C80.3,54,89.9,93,92.3,102.2C100.2,131.8,88.6,144.2,69.7,139.7z"/>
</g>
<g id="color-1">
	<path class="st0" d="M95.8,80.7c0,0,1.1,3.7,1.7,5.5c4.4,15.1,6.9,29.6,6.6,42c-0.5,19.1-6.6,24.2-12.7,27.1
		c-1.6,0.8-2.9,1.1-2.9,1.1s0.4,0.1,0.6,0.1c87.3,22.3,236.2,25.2,314.3,21.2c77.1-3.9,225.2-16.1,307.6-25.9
		c19.2-2.3,80.7-10.1,99.4-15.1c20-5.3,58.8-20.1,77.4-29.2c4.8-2.3,14.3-7.2,18.4-10.5c1.2-0.9,4-5.6,4-7.8c0-1.7-1.8-4.9-2.7-5.5
		c-3.5-2.3-18.1-7.6-32-11.8c-13.7-4.2-21.2-6-21.2-6s-164.3,9.5-334.2,10.9C316.5,78.5,92.7,71,95.8,80.7"/>
	<path class="st1" d="M569.6,280.9c-50.1-2.9-102-5.1-151.8-7.4c-59.9-2.8-117.1-7-166.4-8.1c-69.7-1.6-146.6-2.6-146.6-2.6
		l-4.4,24.4l539.8,36.2c0,0,123.3,33.6,123.3,40c0,8.7-109.1,42-109.1,42L99.8,435.8l5,27c0,0,77.5-0.9,146.6-2.5
		c49.3-1.1,106.4-5.4,166.4-8.1c49.9-2.3,101.8-4.5,151.8-7.4c155.7-9.1,296.3-37.2,330.1-81.9C865.9,318.1,725.3,290,569.6,280.9z"
		/>
</g>
<g id="color-2">
	<path class="st2" d="M848.9,64.6c-62.6-12.7-125.5-22.5-166.3-26.8c-81.1-8.5-207.4-11.6-329.9-16.9c-41.3-1.8-82.1-3.8-120.7-3.7
		c-60.7,0.1-115.5,3-158.9,9.3c-0.2,0-0.9,0.1-0.9,0.1s0,0,0.6,1C80.5,41.9,87,55.5,92.4,70.8c0.2,0.5,21.3-3.3,54.4-3
		c19.7,0.2,43.9-0.9,71.7-0.4c127.4,2.6,325.9,4.9,466.2,3c30.6-0.4,58.7-1.3,82.4-1.7C820.1,67.8,852.3,65.3,848.9,64.6z"/>
	<path class="st2" d="M103.2,284.6l-4.8,14c0,0-6.7,48.1-6.7,64.3c0,16.1,6.7,65,6.7,65l3.6,19.5c0,0,640.5-39.8,674.2-84.5
		C742.4,318.1,103.2,284.6,103.2,284.6z"/>
</g>
<g id="color-3">
	<path class="st3" d="M779.1,363.3C779.1,363.3,779.2,363.3,779.1,363.3L779.1,363.3c-0.8-0.9-23.2-23-60.3-34.4
		c-21.2-6.5-60.5-14.7-101.3-19c-54.1-5.7-218.5-16.5-218.5-16.5s-104.6-6-139.5-7.7c-39.4-1.9-157.8-6.4-157.8-6.4l-3.3,19.5
		l231.2,9.8c0,0,184.5,9.6,245.9,14.9c29.2,2.5,86.6,9.8,116.1,15.1c8.7,1.6,24.1,6.1,33.4,9.9c6.2,2.5,27.8,14.3,28.6,14.7
		c-0.8,0.4-22.4,12.2-28.6,14.7c-9.3,3.8-24.7,8.4-33.4,9.9c-29.6,5.3-87,12.6-116.1,15.1C514,408.4,329.5,418,329.5,418l-231.2,9.8
		l3.3,19.5c0,0,118.4-4.5,157.8-6.4c34.9-1.7,139.5-7.7,139.5-7.7s164.4-10.8,218.5-16.5c40.8-4.3,80.1-12.5,101.3-19
		C756,386.3,778.3,364.2,779.1,363.3L779.1,363.3C779.2,363.3,779.1,363.3,779.1,363.3z"/>
	<path class="st3" d="M92.3,70.7l8.3,26.1c0,0,327.8-1.8,437.1-2.5C590.4,94,678.9,90,725.9,86c21.1-1.8,63.3-6.5,84.3-9.2
		c12-1.6,55.4-7.9,55.4-7.9l-8-2.2l-8.4-2.1c0,0-106,6.5-235,6.3c-85.6-0.1-183.1-0.3-271.1-1.6c-84.8-1.2-160.9-3.5-209.4-2
		C119.8,67.9,92.3,70.7,92.3,70.7z"/>
</g>
<g id="color-4">
	<path class="st4" d="M767.5,363.3C767.5,363.3,767.5,363.3,767.5,363.3L767.5,363.3c-0.9-0.8-20.2-18-52.8-29
		c-21-7.1-56.6-13.3-97.5-17.6c-54.1-5.7-218.5-18-218.5-18s-104.9-6.2-139.8-7.8c-39.4-1.9-158.1-6.2-158.1-6.2l-2.4,14.2
		l231.2,9.8c0,0,184.5,9.6,245.9,14.9c29.2,2.5,86.6,9.8,116.1,15.1c8.7,1.6,24.1,6.1,33.4,9.9c6.2,2.5,27.8,14.3,28.6,14.7
		c-0.8,0.4-22.4,12.2-28.6,14.7c-9.3,3.8-24.7,8.4-33.4,9.9c-29.6,5.3-87,12.6-116.1,15.1C514,408.4,329.5,418,329.5,418l-231.2,9.8
		l2.4,14.2c0,0,118.6-4.4,158.1-6.2c34.9-1.7,139.8-7.8,139.8-7.8s164.4-12.3,218.5-18c40.8-4.3,76.5-10.5,97.5-17.6
		C747.3,381.3,766.5,364.2,767.5,363.3L767.5,363.3C767.5,363.3,767.5,363.3,767.5,363.3z"/>
	<path class="st4" d="M92.3,70.7l5.8,18.2c0,0,51.6-2.9,122.6-2.4c105.1,0.7,249.7,1.2,315.5-0.6c42.3-1.1,142.6-3.4,189.5-7.4
		c21.1-1.8,63.3-4,84.3-6.8c12-1.6,47.5-5,47.5-5l-8.4-2.1c0,0-106,6.5-235,6.3c-85.6-0.1-183.1-0.3-271.1-1.6
		c-84.8-1.2-160.9-3.5-209.4-2C119.8,67.9,92.3,70.7,92.3,70.7z"/>
</g>
<g id="color-5">
	<path class="st5" d="M770.2,306.4c0,0,33.5,15.8,55.5,34.5c13.4,11.4,15,20.5,15,20.5s-1.6,9.1-15,20.5
		c-22,18.7-54.8,37.5-54.8,37.5c77.5-17.5,116.2-38.1,128.8-56.5C886.4,345,847.7,323.8,770.2,306.4z"/>
	<path class="st5" d="M907.7,83.3c-2.2-1.4-14.6-5.8-14.6-5.8s1.7,7.2-1.6,12.5c-2.4,3.8-15.6,14.5-20.3,17.4
		c-5.7,3.6-20.4,11-27.5,14c-12.3,5.2-32.8,12.3-50.8,15.3c-11.2,1.8-21,3.9-29.7,4.4c-10.3,0.6-26.4-2.2-34.8-1
		c-8.1,1.2-19.6,12.1-19.6,12.1c5-0.5,16.2-2.1,21.4-2.6c20.3-2.3,66.6-9.1,80.6-12.8c20-5.3,56.6-19.1,75.1-28.2
		c4.8-2.3,16.5-8.3,20.6-11.6c1.2-0.9,3.7-5.7,3.7-7.9C910.3,87.3,908.6,83.9,907.7,83.3z"/>
	<path class="st5" d="M102.9,109.3c0,0,22.7,18.5,50.3,29.2c31.9,12.4,72.2,18.4,83.5,19.8c9.5,1.2,37,1.2,37,1.2v4.3
		c0,0-15.7-0.2-20.9-0.4c-15.6-0.7-44.9-4.1-71.3-10.5c-26.5-6.4-56.4-20.1-77.8-37.4L102.9,109.3z"/>
	<path class="st5" d="M320.4,176.5c-8.9,0-45.7-0.3-87.2-4.3c-63.7-6.2-107.3-18-129.6-34.9l0.5-3.1
		c52.1,39.6,216.6,39.4,218.3,39.3l0,3C322.4,176.5,321.7,176.5,320.4,176.5z"/>
</g>
</svg>
